<?xml version="1.0" ?><!DOCTYPE svg  PUBLIC '-//W3C//DTD SVG 1.1//EN'  'http://www.w3.org/Graphics/SVG/1.1/DTD/svg11.dtd'><svg height="6.82666in" style="shape-rendering:geometricPrecision; text-rendering:geometricPrecision; image-rendering:optimizeQuality; fill-rule:evenodd; clip-rule:evenodd" viewBox="0 0 6.82666 6.82666" width="6.82666in" xml:space="preserve" xmlns="http://www.w3.org/2000/svg" xmlns:xlink="http://www.w3.org/1999/xlink"><defs><style type="text/css">
   <![CDATA[
    .fil2 {fill:none}
    .fil1 {fill:black}
    .fil0 {fill:black;fill-rule:nonzero}
   ]]>
  </style></defs><g id="Layer_x0020_1"><g id="_341776512"><path class="fil0" d="M1.60666 0.913331l2.55457 0c0.0222638,0 0.0423976,0.00909843 0.0569016,0.0237756l1.22509 1.22509 3.93701e-006 -3.93701e-006c0.015622,0.0156181 0.0234291,0.0360945 0.0234291,0.0565669l3.93701e-006 0 0 3.4479c0,0.0679173 -0.0277244,0.129602 -0.0723937,0.174272 -0.0446693,0.0446693 -0.106354,0.0723937 -0.174272,0.0723937l-3.61333 0c-0.0679173,0 -0.129602,-0.0277244 -0.174272,-0.0723937 -0.0446693,-0.0446693 -0.0723937,-0.106354 -0.0723937,-0.174272l0 -4.50667c0,-0.0679173 0.0277244,-0.129602 0.0723937,-0.174272 0.0446693,-0.0446693 0.106354,-0.0723937 0.174272,-0.0723937zm2.52144 0.16l-2.52144 0c-0.023748,0 -0.0454016,0.00977559 -0.0611457,0.0255197 -0.0157441,0.0157441 -0.0255197,0.0373976 -0.0255197,0.0611457l0 4.50667c0,0.023748 0.00977559,0.0454016 0.0255197,0.0611457 0.0157441,0.0157441 0.0373976,0.0255197 0.0611457,0.0255197l3.61333 0c0.023748,0 0.0454016,-0.00977559 0.0611457,-0.0255197 0.0157441,-0.0157441 0.0255197,-0.0373976 0.0255197,-0.0611457l0 -3.41478 -1.17856 -1.17856z" id="_341776680"/><path class="fil0" d="M5.37944 2.29843l-1.21511 -0.00354724 0 -0.079689 -0.000232283 0.08c-0.0441811,-0.000125984 -0.0798937,-0.0360512 -0.0797677,-0.0802323 7.87402e-006,-0.00222835 0.000110236,-0.00443307 0.000295276,-0.00661024l-0.00308661 -1.21482 -0.000311024 0c-0.000110236,-0.0441811 0.0356142,-0.0800945 0.0797953,-0.0802047 0.0223858,-5.51181e-005 0.0426457,0.00909055 0.0572047,0.023874l1.225 1.225 3.93701e-006 -3.93701e-006c0.0312402,0.0312402 0.0312402,0.0818937 0,0.113134 -0.0174567,0.0174567 -0.0409803,0.0251575 -0.0637874,0.0231024z" id="_341776560"/></g><path class="fil1" d="M3.63668 5.24498c0,-0.0762402 -0.0167205,-0.132996 -0.050315,-0.170579 -0.0335945,-0.0375827 -0.0774646,-0.0564488 -0.131614,-0.0564488 -0.0543031,0 -0.0981772,0.0188661 -0.131925,0.0566024 -0.033748,0.0377362 -0.050622,0.0944921 -0.050622,0.170425 0,0.0768543 0.016874,0.134531 0.050622,0.172728 0.033748,0.0381929 0.0762402,0.0573701 0.127783,0.0573701 0.0191732,0 0.0374291,-0.00322047 0.0544567,-0.00951181 -0.027,-0.0176417 -0.0544567,-0.0314449 -0.0822244,-0.0414173l0.0372756 -0.0759331c0.0437205,0.0150354 0.0855984,0.0374291 0.125327,0.0674961 0.0171811,-0.0200945 0.0299134,-0.0443307 0.0385039,-0.0728622 0.00843701,-0.0283819 0.0127323,-0.0610551 0.0127323,-0.0978701z"/><path class="fil1" d="M4.01465 4.92085l0 0.542417 0.330728 0 0 0.111059 -0.463724 0 0 -0.653476 0.132996 0zm-0.326736 0.0730157c0.0572165,0.0598268 0.0859016,0.143429 0.0859016,0.251114 0,0.0569094 -0.00797638,0.106917 -0.0237756,0.150024 -0.0121181,0.0329803 -0.0312953,0.0648858 -0.0575236,0.0957205 0.0325197,0.023315 0.0681063,0.0420315 0.106457,0.055685l-0.0489331 0.0940315c-0.0200945,-0.00598031 -0.0397323,-0.0142638 -0.0589055,-0.0246969 -0.00429528,-0.00214567 -0.033748,-0.0216299 -0.0885118,-0.0584449 -0.0432559,0.0188701 -0.0909646,0.0282244 -0.143425,0.0282244 -0.101244,0 -0.180551,-0.0297598 -0.237921,-0.0894291 -0.057374,-0.0595197 -0.0860591,-0.143276 -0.0860591,-0.251114 0,-0.107685 0.028685,-0.191287 0.0862126,-0.251114 0.0575236,-0.0596693 0.135602,-0.0895827 0.234236,-0.0895827 0.097563,0 0.175028,0.0299134 0.232248,0.0895827zm1.10875 -0.362476l-2.76667 0c-0.0679173,0 -0.129602,0.0277244 -0.174272,0.0723937 -0.0446693,0.0446693 -0.0723937,0.106354 -0.0723937,0.174272l0 0.881945 3.26 0 0 -0.881945c0,-0.0679173 -0.0277244,-0.129602 -0.0723937,-0.174272 -0.0446693,-0.0446693 -0.106354,-0.0723937 -0.174272,-0.0723937zm-1.77266 0.64611c0.0174843,0.028378 0.0262283,0.0633543 0.0262283,0.104925 0,0.0377362 -0.0104291,0.0731732 -0.0314449,0.106 -0.0210157,0.0329803 -0.050622,0.0575236 -0.0889724,0.0734764 -0.0383465,0.0161063 -0.0862087,0.0240827 -0.143425,0.0240827 -0.0832953,0 -0.147264,-0.0191732 -0.191902,-0.0576772 -0.0446378,-0.0385039 -0.0713307,-0.0946457 -0.0799213,-0.16828l0.129469 -0.0127283c0.00766929,0.043563 0.0234685,0.0754685 0.0474016,0.0958701 0.0237756,0.020252 0.0558346,0.0305276 0.0963307,0.0305276 0.0427992,0 0.0751654,-0.00905118 0.0967953,-0.0273031 0.0217835,-0.0181024 0.0326732,-0.0392717 0.0326732,-0.0635079 0,-0.0156457 -0.00460236,-0.0288386 -0.0138031,-0.0397283 -0.00905118,-0.0110472 -0.0250039,-0.0205591 -0.0478622,-0.0285354 -0.0154921,-0.00551969 -0.0510827,-0.0150315 -0.106457,-0.0288386 -0.0713307,-0.0176378 -0.121339,-0.0394213 -0.150024,-0.0651929 -0.0405,-0.0362008 -0.060748,-0.0803819 -0.060748,-0.132535 0,-0.0335945 0.00951181,-0.0648898 0.0285315,-0.094189 0.0190236,-0.0291457 0.0464803,-0.0513858 0.0822244,-0.0667283 0.0358937,-0.015185 0.079,-0.0228543 0.129622,-0.0228543 0.0828346,0 0.144961,0.0181024 0.186839,0.0543031 0.0417244,0.0363543 0.0636575,0.0846772 0.0658071,0.145268l-0.132996 0.00583071c-0.00567717,-0.0339016 -0.0179488,-0.0582913 -0.0366614,-0.0730197 -0.0187165,-0.014878 -0.0467874,-0.0222441 -0.0842165,-0.0222441 -0.0386575,0 -0.0690315,0.00782677 -0.090811,0.0237795 -0.0141142,0.010122 -0.0211693,0.0237756 -0.0211693,0.0408031 0,0.0156457 0.00659449,0.0289921 0.0197874,0.0400354 0.0167205,0.0141142 0.0575236,0.0288386 0.12226,0.0440276 0.0647323,0.0153386 0.112594,0.0311378 0.143579,0.0473976 0.0309882,0.0164134 0.0552244,0.0386575 0.0728661,0.0670354z"/></g><rect class="fil2" height="6.82666" width="6.82666"/></svg>